<svg version="1.1" id="Layer_1" xmlns="http://www.w3.org/2000/svg" xmlns:xlink="http://www.w3.org/1999/xlink" x="0px" y="0px"
	 width="100%" viewBox="0 0 1024 1024" enable-background="new 0 0 1024 1024" xml:space="preserve">
<path fill="#2A1744" opacity="1.000000" stroke="none" 
	d="
M178.439850,832.111450 
	C200.473083,809.173767 222.450882,786.182434 244.550720,763.309021 
	C295.941498,710.119690 347.390747,656.986755 398.818756,603.833435 
	C399.860931,602.756226 400.933105,601.708069 402.452820,600.247437 
	C403.643372,598.917114 404.372345,597.985718 405.400818,596.912720 
	C412.445129,589.774475 419.189941,582.777832 426.234406,575.660583 
	C428.407562,573.398193 430.281006,571.256409 432.118683,569.084351 
	C432.082886,569.054199 432.079193,569.147766 432.338928,569.064453 
	C432.780151,568.678284 432.961670,568.375305 433.101746,568.066528 
	C433.060303,568.060669 433.075012,568.143066 433.334961,568.061218 
	C433.777771,567.677368 433.960632,567.375305 434.101929,567.066895 
	C434.060425,567.060486 434.075989,567.143005 434.334229,567.059387 
	C434.773254,566.673706 434.954041,566.371704 435.093811,566.060608 
	C435.052856,566.051575 435.069336,566.133850 435.331238,566.049194 
	C435.794495,565.667114 435.995819,565.369812 436.490417,564.925659 
	C485.864929,513.533264 534.946167,462.287628 584.342896,411.026123 
	C585.167969,410.369263 585.677551,409.728271 586.461548,408.960022 
	C587.507812,407.917999 588.279602,407.003235 589.354004,405.956451 
	C591.466797,403.930878 593.277039,402.037323 595.087219,400.143799 
	C665.883789,326.834717 736.680298,253.525604 807.972961,179.702759 
	C808.042236,181.128830 808.124451,182.030518 808.124390,182.932205 
	C808.109070,399.249939 808.088135,615.567688 808.065613,831.885437 
	C808.065430,833.385437 808.041199,834.885376 807.421021,836.756653 
	C802.419495,837.418213 798.014038,837.600525 793.636658,838.054443 
	C791.995850,838.224487 790.420593,839.026123 788.815491,839.539795 
	C788.455017,839.609558 788.094604,839.679199 787.215942,839.266357 
	C779.697693,838.558228 772.698425,838.295593 765.696594,838.171692 
	C765.079285,838.160706 764.445862,839.055664 763.819946,839.529846 
	C763.162231,839.601868 762.504456,839.673889 761.271545,839.263184 
	C756.070801,839.034302 751.445251,839.288086 746.819702,839.541870 
	C746.162598,839.614746 745.505554,839.687561 744.274475,839.275757 
	C741.600891,838.526611 739.501404,838.031982 737.401672,838.030823 
	C663.284546,837.991028 589.167419,837.997803 515.050293,837.997437 
	C407.622101,837.996948 300.193909,837.987854 192.765762,838.059692 
	C190.848114,838.060974 188.931122,839.029236 187.013824,839.546387 
	C186.559311,839.619019 186.104782,839.691650 185.222290,839.350952 
	C182.676163,836.662170 180.557999,834.386841 178.439850,832.111450 
z"/>
<path fill="#996DED" opacity="1.000000" stroke="none" 
	d="
M589.051392,406.088470 
	C588.279602,407.003235 587.507812,407.917999 586.121399,408.968994 
	C585.013611,409.750793 584.520447,410.396393 584.027344,411.041992 
	C534.946167,462.287628 485.864929,513.533264 436.227356,565.009888 
	C435.470428,565.538513 435.269897,565.836182 435.069336,566.133850 
	C435.069336,566.133850 435.052856,566.051575 434.840393,566.151855 
	C434.443970,566.549072 434.259979,566.846008 434.075989,567.143005 
	C434.075989,567.143005 434.060425,567.060486 433.846710,567.156189 
	C433.447021,567.548950 433.261047,567.846008 433.075012,568.143066 
	C433.075012,568.143066 433.060303,568.060669 432.846375,568.156494 
	C432.448029,568.550842 432.263611,568.849304 432.079193,569.147766 
	C432.079193,569.147766 432.082886,569.054199 431.758667,569.077026 
	C429.601196,571.326965 427.767975,573.554077 425.934723,575.781189 
	C419.189941,582.777832 412.445129,589.774475 405.002930,596.899475 
	C403.006012,597.226685 401.658112,597.755493 400.414551,597.573059 
	C388.519501,595.827332 376.552490,594.404663 364.780701,592.025452 
	C347.297913,588.491943 331.184479,581.214417 315.716553,572.446228 
	C311.179535,569.874329 306.514862,567.527649 301.908691,565.077759 
	C301.908691,565.077759 302.006195,565.066284 301.962067,564.729858 
	C299.244995,562.623535 296.572083,560.853638 293.899139,559.083801 
	C293.899139,559.083801 294.003143,559.064148 293.960144,558.736084 
	C293.415863,557.581299 293.054169,556.615845 292.392059,555.948608 
	C283.831451,547.322266 275.253937,538.712036 266.599670,530.179932 
	C265.621460,529.215515 264.149933,528.751587 262.907166,528.055542 
	C262.907166,528.055542 262.976593,528.000122 262.980621,527.663452 
	C261.289185,525.238770 259.593719,523.150818 257.898224,521.062805 
	C257.898224,521.062805 257.962494,520.996643 257.970947,520.673706 
	C257.281830,519.590393 256.584198,518.829956 255.886597,518.069519 
	C255.886612,518.069519 255.949997,517.996887 255.963303,517.677246 
	C255.283920,516.591736 254.591232,515.825928 253.898560,515.060059 
	C253.898560,515.060059 253.961761,514.995422 253.972900,514.658447 
	C251.947861,511.241821 249.911667,508.162201 247.875488,505.082581 
	C247.875473,505.082581 247.913376,505.000671 247.944489,504.658813 
	C247.428284,502.766968 246.967896,501.179626 246.320053,499.672882 
	C240.590927,486.348083 235.010895,473.086884 231.522720,458.824402 
	C226.222031,437.150818 225.744049,415.418610 228.093323,393.565155 
	C230.960846,366.890411 239.468811,342.055420 254.538132,319.610413 
	C257.162994,315.700836 258.864838,311.171539 260.992950,306.928436 
	C261.028625,306.618317 261.162720,306.359070 261.947235,306.041840 
	C263.339203,304.967407 264.179077,304.001801 265.263428,302.843811 
	C265.638763,302.060120 265.769623,301.468842 265.900452,300.877533 
	C265.900452,300.877533 265.969879,300.928284 266.176025,300.843201 
	C266.563690,300.464966 266.745209,300.171814 266.926758,299.878662 
	C266.926758,299.878662 266.911011,299.959808 267.221008,299.846008 
	C268.998718,297.791748 270.466400,295.851257 271.934082,293.910736 
	C271.934082,293.910736 271.989197,293.969299 272.193604,293.869385 
	C272.583984,293.480743 272.769958,293.192078 272.955933,292.903412 
	C272.955963,292.903412 272.977478,292.977539 273.185608,292.871399 
	C273.580109,292.476868 273.766418,292.188446 273.952759,291.900055 
	C273.952759,291.900055 273.920654,291.971222 274.253448,291.945557 
	C277.694214,288.570587 280.802185,285.221313 283.910187,281.872040 
	C283.910187,281.872040 284.002808,281.933472 284.321747,281.953430 
	C288.392609,278.601166 292.144562,275.228912 295.896484,271.856689 
	C295.896484,271.856689 295.997437,271.903473 296.320068,271.935547 
	C300.783020,270.179230 305.343048,268.924377 306.922791,263.880920 
	C306.922791,263.880920 307.002045,263.938660 307.346771,263.962158 
	C309.075714,263.559967 310.552917,263.319702 311.829376,262.679260 
	C321.814423,257.669403 331.653290,252.355820 341.742340,247.568192 
	C361.202057,238.333832 382.172211,235.190018 403.346375,234.198776 
	C420.219055,233.408905 436.958649,235.651459 453.479645,239.765503 
	C466.695496,243.056519 479.382935,247.362671 491.374542,253.830383 
	C494.052979,255.274994 497.198029,255.854446 500.128265,256.832184 
	C500.128265,256.832184 499.970581,256.925049 500.136414,257.211090 
	C503.234741,258.969299 506.167206,260.441498 509.099670,261.913666 
	C509.099670,261.913666 509.001862,261.912445 509.047424,262.259460 
	C511.094635,263.710815 513.096313,264.815186 515.097961,265.919556 
	C515.097961,265.919556 514.998718,265.929779 515.038086,266.262115 
	C515.820129,267.653442 516.396851,268.895325 517.331055,269.743195 
	C527.093201,278.602936 536.895081,287.419159 546.745361,296.180725 
	C547.660583,296.994812 548.983276,297.350891 550.116760,297.919617 
	C550.116760,297.919617 550.052979,298.004272 550.036560,298.327698 
	C552.834290,302.798767 555.524353,307.039246 558.524719,311.047516 
	C559.694580,312.610291 561.562988,313.650177 563.113159,314.928253 
	C563.113159,314.928253 563.050049,315.002014 563.035339,315.337952 
	C565.418945,319.396942 567.817261,323.119995 570.215637,326.843048 
	C570.215637,326.843048 570.204468,326.801117 570.141235,327.205933 
	C571.514648,330.692810 573.182007,333.690430 574.346436,336.872070 
	C578.579834,348.439392 583.275696,359.891602 586.590332,371.725220 
	C589.708679,382.858002 593.343994,394.282562 589.051392,406.088470 
z"/>
<path fill="#201133" opacity="1.000000" stroke="none" 
	d="
M187.472839,839.641357 
	C188.931122,839.029236 190.848114,838.060974 192.765762,838.059692 
	C300.193909,837.987854 407.622101,837.996948 515.050293,837.997437 
	C589.167419,837.997803 663.284546,837.991028 737.401672,838.030823 
	C739.501404,838.031982 741.600891,838.526611 743.957397,839.168701 
	C718.730286,839.618164 693.246338,839.750427 667.762329,839.752197 
	C507.818848,839.763184 347.875336,839.744995 187.472839,839.641357 
z"/>
<path fill="#9A7AD1" opacity="1.000000" stroke="none" 
	d="
M260.707367,307.110870 
	C258.864838,311.171539 257.162994,315.700836 254.538132,319.610413 
	C239.468811,342.055420 230.960846,366.890411 228.093323,393.565155 
	C225.744049,415.418610 226.222031,437.150818 231.522720,458.824402 
	C235.010895,473.086884 240.590927,486.348083 246.320053,499.672882 
	C246.967896,501.179626 247.428284,502.766968 247.947601,504.703796 
	C243.620026,496.148468 238.631470,487.464722 235.159958,478.211823 
	C227.197128,456.987701 223.593460,434.815430 224.345413,412.177124 
	C225.626617,373.605194 237.130997,338.379272 260.707367,307.110870 
z"/>
<path fill="#997AD1" opacity="1.000000" stroke="none" 
	d="
M500.003357,256.516846 
	C497.198029,255.854446 494.052979,255.274994 491.374542,253.830383 
	C479.382935,247.362671 466.695496,243.056519 453.479645,239.765503 
	C436.958649,235.651459 420.219055,233.408905 403.346375,234.198776 
	C382.172211,235.190018 361.202057,238.333832 341.742340,247.568192 
	C331.653290,252.355820 321.814423,257.669403 311.829376,262.679260 
	C310.552917,263.319702 309.075714,263.559967 307.298309,263.954712 
	C318.382996,257.680328 329.468689,250.524078 341.422302,245.387802 
	C364.627350,235.416977 389.262726,231.618927 414.461487,232.247879 
	C443.158051,232.964127 470.272858,240.145294 495.714966,253.495514 
	C497.174286,254.261246 498.493866,255.293335 500.003357,256.516846 
z"/>
<path fill="#9A7AD1" opacity="1.000000" stroke="none" 
	d="
M302.058472,565.379395 
	C306.514862,567.527649 311.179535,569.874329 315.716553,572.446228 
	C331.184479,581.214417 347.297913,588.491943 364.780701,592.025452 
	C376.552490,594.404663 388.519501,595.827332 400.414551,597.573059 
	C401.658112,597.755493 403.006012,597.226685 404.703400,597.041138 
	C404.372345,597.985718 403.643372,598.917114 402.632202,599.951782 
	C392.482117,598.710327 382.528381,597.812317 372.763123,595.934265 
	C347.085541,590.995972 323.515228,580.922607 302.058472,565.379395 
z"/>
<path fill="#997AD1" opacity="1.000000" stroke="none" 
	d="
M589.354004,405.956451 
	C593.343994,394.282562 589.708679,382.858002 586.590332,371.725220 
	C583.275696,359.891602 578.579834,348.439392 574.346436,336.872070 
	C573.182007,333.690430 571.514648,330.692810 570.161987,327.212585 
	C570.910034,327.501373 571.771362,328.081512 572.209473,328.890747 
	C583.327637,349.429657 590.528076,371.220093 593.117493,394.486542 
	C593.316345,396.273010 593.945923,398.011536 594.731262,399.958069 
	C593.277039,402.037323 591.466797,403.930878 589.354004,405.956451 
z"/>
<path fill="#997AD1" opacity="1.000000" stroke="none" 
	d="
M550.030884,297.593201 
	C548.983276,297.350891 547.660583,296.994812 546.745361,296.180725 
	C536.895081,287.419159 527.093201,278.602936 517.331055,269.743195 
	C516.396851,268.895325 515.820129,267.653442 515.080078,266.235168 
	C528.583557,274.251526 539.671021,285.307465 550.030884,297.593201 
z"/>
<path fill="#9A7AD1" opacity="1.000000" stroke="none" 
	d="
M262.986145,528.387085 
	C264.149933,528.751587 265.621460,529.215515 266.599670,530.179932 
	C275.253937,538.712036 283.831451,547.322266 292.392059,555.948608 
	C293.054169,556.615845 293.415863,557.581299 293.916443,558.765991 
	C285.374084,551.182129 276.778320,543.297363 268.330536,535.257019 
	C266.321167,533.344666 264.807037,530.912048 262.986145,528.387085 
z"/>
<path fill="#201133" opacity="1.000000" stroke="none" 
	d="
M178.157043,832.293579 
	C180.557999,834.386841 182.676163,836.662170 184.889526,839.244141 
	C181.296600,839.617126 177.608475,839.683533 173.484802,839.417847 
	C173.051193,838.763123 173.045380,838.440674 173.031845,838.118408 
	C174.645996,836.237549 176.260132,834.356628 178.157043,832.293579 
z"/>
<path fill="#997AD1" opacity="1.000000" stroke="none" 
	d="
M563.044312,314.588959 
	C561.562988,313.650177 559.694580,312.610291 558.524719,311.047516 
	C555.524353,307.039246 552.834290,302.798767 550.049927,298.276428 
	C554.378296,303.351044 558.676819,308.800354 563.044312,314.588959 
z"/>
<path fill="#201133" opacity="1.000000" stroke="none" 
	d="
M764.235474,839.626465 
	C764.445862,839.055664 765.079285,838.160706 765.696594,838.171692 
	C772.698425,838.295593 779.697693,838.558228 786.956299,839.159912 
	C779.693604,839.598450 772.172302,839.660767 764.235474,839.626465 
z"/>
<path fill="#201133" opacity="1.000000" stroke="none" 
	d="
M789.231323,839.635620 
	C790.420593,839.026123 791.995850,838.224487 793.636658,838.054443 
	C798.014038,837.600525 802.419495,837.418213 807.288452,837.171204 
	C807.763123,837.214478 807.691956,837.252563 807.486694,837.619995 
	C807.182312,838.526184 807.083130,839.064941 806.984009,839.603699 
	C801.205017,839.646301 795.426086,839.688904 789.231323,839.635620 
z"/>
<path fill="#997AD1" opacity="1.000000" stroke="none" 
	d="
M295.562073,271.931335 
	C292.144562,275.228912 288.392609,278.601166 284.267273,281.942413 
	C287.671783,278.609589 291.449707,275.307770 295.562073,271.931335 
z"/>
<path fill="#997AD1" opacity="1.000000" stroke="none" 
	d="
M283.583069,281.954071 
	C280.802185,285.221313 277.694214,288.570587 274.229492,291.914734 
	C277.000488,288.618408 280.128235,285.327271 283.583069,281.954071 
z"/>
<path fill="#997AD1" opacity="1.000000" stroke="none" 
	d="
M306.581360,263.944214 
	C305.343048,268.924377 300.783020,270.179230 296.264465,271.933624 
	C299.337494,269.268921 302.788727,266.638184 306.581360,263.944214 
z"/>
<path fill="#997AD1" opacity="1.000000" stroke="none" 
	d="
M570.236816,326.479492 
	C567.817261,323.119995 565.418945,319.396942 563.046265,315.290649 
	C565.467224,318.643616 567.862610,322.379761 570.236816,326.479492 
z"/>
<path fill="#201133" opacity="1.000000" stroke="none" 
	d="
M747.246216,839.634644 
	C751.445251,839.288086 756.070801,839.034302 760.954956,839.153503 
	C756.699951,839.593506 752.186401,839.660461 747.246216,839.634644 
z"/>
<path fill="#9A7AD1" opacity="1.000000" stroke="none" 
	d="
M247.924423,505.434052 
	C249.911667,508.162201 251.947861,511.241821 253.959961,514.701782 
	C251.948395,511.983185 249.960876,508.884369 247.924423,505.434052 
z"/>
<path fill="#9A7AD1" opacity="1.000000" stroke="none" 
	d="
M294.052429,559.381958 
	C296.572083,560.853638 299.244995,562.623535 301.919495,564.754272 
	C299.349274,563.303528 296.777496,561.491821 294.052429,559.381958 
z"/>
<path fill="#997AD1" opacity="1.000000" stroke="none" 
	d="
M508.939087,261.614044 
	C506.167206,260.441498 503.234741,258.969299 500.209290,257.154724 
	C503.003723,258.313049 505.891113,259.813751 508.939087,261.614044 
z"/>
<path fill="#9A7AD1" opacity="1.000000" stroke="none" 
	d="
M257.961365,521.398743 
	C259.593719,523.150818 261.289185,525.238770 262.963196,527.704346 
	C261.302704,525.966125 259.663635,523.850403 257.961365,521.398743 
z"/>
<path fill="#997AD1" opacity="1.000000" stroke="none" 
	d="
M271.632263,294.054443 
	C270.466400,295.851257 268.998718,297.791748 267.185822,299.824402 
	C268.337219,298.010437 269.833832,296.104279 271.632263,294.054443 
z"/>
<path fill="#997AD1" opacity="1.000000" stroke="none" 
	d="
M514.936157,265.627655 
	C513.096313,264.815186 511.094635,263.710815 509.091064,262.237366 
	C510.984222,263.024109 512.879272,264.179932 514.936157,265.627655 
z"/>
<path fill="#9A7AD1" opacity="1.000000" stroke="none" 
	d="
M265.018951,303.036194 
	C264.179077,304.001801 263.339203,304.967407 262.141907,305.933411 
	C262.651459,304.683136 263.518433,303.432404 264.685181,302.306702 
	C264.996246,302.633209 265.007599,302.834686 265.018951,303.036194 
z"/>
<path fill="#9A7AD1" opacity="1.000000" stroke="none" 
	d="
M253.945435,515.373413 
	C254.591232,515.825928 255.283920,516.591736 255.952057,517.724121 
	C255.282455,517.289368 254.637390,516.488098 253.945435,515.373413 
z"/>
<path fill="#9A7AD1" opacity="1.000000" stroke="none" 
	d="
M255.935883,518.381897 
	C256.584198,518.829956 257.281830,519.590393 257.957581,520.717896 
	C257.285522,520.288025 256.635315,519.491150 255.935883,518.381897 
z"/>
<path fill="#997AD1" opacity="1.000000" stroke="none" 
	d="
M265.263428,302.843811 
	C265.007599,302.834686 264.996246,302.633209 264.963226,302.129150 
	C265.009766,301.498657 265.180634,301.238007 265.677307,300.961090 
	C265.769623,301.468842 265.638763,302.060120 265.263428,302.843811 
z"/>
<path fill="#2A1744" opacity="1.000000" stroke="none" 
	d="
M172.787964,838.227905 
	C173.045380,838.440674 173.051193,838.763123 173.033463,839.327209 
	C172.859802,839.158264 172.701950,838.747803 172.787964,838.227905 
z"/>
<path fill="#2A1744" opacity="1.000000" stroke="none" 
	d="
M807.300903,839.626831 
	C807.083130,839.064941 807.182312,838.526184 807.518677,837.642822 
	C807.709839,838.082153 807.663757,838.866028 807.300903,839.626831 
z"/>
<path fill="#997AD1" opacity="1.000000" stroke="none" 
	d="
M266.662384,299.947876 
	C266.745209,300.171814 266.563690,300.464966 266.134155,300.853088 
	C266.056763,300.637726 266.227386,300.327393 266.662384,299.947876 
z"/>
<path fill="#997AD1" opacity="1.000000" stroke="none" 
	d="
M272.700256,292.985229 
	C272.769958,293.192078 272.583984,293.480743 272.153442,293.867432 
	C272.087433,293.665985 272.266022,293.366516 272.700256,292.985229 
z"/>
<path fill="#997AD1" opacity="1.000000" stroke="none" 
	d="
M273.695496,291.979858 
	C273.766418,292.188446 273.580109,292.476868 273.148376,292.861389 
	C273.081390,292.658234 273.259827,292.358948 273.695496,291.979858 
z"/>
<path fill="#9A7AD1" opacity="1.000000" stroke="none" 
	d="
M426.234406,575.660583 
	C427.767975,573.554077 429.601196,571.326965 431.794464,569.107178 
	C430.281006,571.256409 428.407562,573.398193 426.234406,575.660583 
z"/>
<path fill="#997AD1" opacity="1.000000" stroke="none" 
	d="
M584.342896,411.026123 
	C584.520447,410.396393 585.013611,409.750793 585.846924,409.096252 
	C585.677551,409.728271 585.167969,410.369263 584.342896,411.026123 
z"/>
<path fill="#9A7AD1" opacity="1.000000" stroke="none" 
	d="
M435.331268,566.049194 
	C435.269897,565.836182 435.470428,565.538513 435.934052,565.156616 
	C435.995819,565.369812 435.794495,565.667114 435.331268,566.049194 
z"/>
<path fill="#9A7AD1" opacity="1.000000" stroke="none" 
	d="
M434.334229,567.059387 
	C434.259979,566.846008 434.443970,566.549072 434.881378,566.160889 
	C434.954041,566.371704 434.773254,566.673706 434.334229,567.059387 
z"/>
<path fill="#9A7AD1" opacity="1.000000" stroke="none" 
	d="
M433.334961,568.061218 
	C433.261047,567.846008 433.447021,567.548950 433.888245,567.162598 
	C433.960632,567.375305 433.777771,567.677368 433.334961,568.061218 
z"/>
<path fill="#9A7AD1" opacity="1.000000" stroke="none" 
	d="
M432.338928,569.064453 
	C432.263611,568.849304 432.448029,568.550842 432.887817,568.162354 
	C432.961670,568.375305 432.780151,568.678284 432.338928,569.064453 
z"/>
</svg>