<svg width="223" height="53" viewBox="0 0 223 53" fill="none" xmlns="http://www.w3.org/2000/svg">
<path d="M213.95 51.9333V0.220703H223V51.9333H213.95Z" fill="#151515"/>
<path d="M191.522 52.6502C187.644 52.6502 184.244 51.8362 181.323 50.2082C178.45 48.5802 176.2 46.3297 174.572 43.4568C172.992 40.5839 172.202 37.28 172.202 33.5453C172.202 29.8105 172.992 26.5305 174.572 23.7055C176.2 20.8326 178.45 18.6061 181.323 17.026C184.196 15.398 187.548 14.584 191.378 14.584C195.017 14.584 198.178 15.3501 200.859 16.8823C203.54 18.3667 205.623 20.4735 207.108 23.2027C208.592 25.932 209.334 29.1162 209.334 32.7552C209.334 33.4255 209.31 34.048 209.262 34.6226C209.214 35.1972 209.143 35.7718 209.047 36.3463H177.804V30.0259H202.08L200.213 31.7497C200.213 28.3022 199.423 25.7165 197.842 23.9928C196.262 22.269 194.06 21.4072 191.235 21.4072C188.17 21.4072 185.728 22.4606 183.909 24.5674C182.137 26.6742 181.251 29.7147 181.251 33.6889C181.251 37.6152 182.137 40.6318 183.909 42.7386C185.728 44.7975 188.29 45.827 191.594 45.827C193.509 45.827 195.185 45.4679 196.621 44.7496C198.058 44.0314 199.111 42.9301 199.782 41.4458H208.329C207.132 44.8933 205.097 47.6226 202.224 49.6336C199.399 51.6446 195.831 52.6502 191.522 52.6502Z" fill="#151515"/>
<path d="M153.616 51.9333L165.538 0.220703H174.588L162.665 51.9333H153.616Z" fill="#151515"/>
<path d="M139.268 51.9333L151.19 0.220703H160.24L148.317 51.9333H139.268Z" fill="#151515"/>
<path d="M127.732 51.9319C127.492 50.9743 127.301 49.9209 127.157 48.7717C127.061 47.6226 127.013 46.234 127.013 44.606H126.726V27.2248C126.726 25.3095 126.175 23.8731 125.074 22.9155C124.021 21.9099 122.393 21.4072 120.19 21.4072C118.035 21.4072 116.312 21.8142 115.019 22.6282C113.774 23.3943 113.008 24.5195 112.721 26.0038H104.03C104.413 22.6042 106.041 19.851 108.914 17.7442C111.787 15.6374 115.641 14.584 120.477 14.584C125.505 14.584 129.312 15.7332 131.897 18.0315C134.483 20.2819 135.776 23.6097 135.776 28.0149V44.606C135.776 45.7552 135.848 46.9283 135.991 48.1253C136.183 49.3224 136.446 50.5912 136.781 51.9319H127.732ZM115.019 52.6502C111.332 52.6502 108.387 51.7404 106.185 49.9209C104.03 48.0535 102.953 45.5636 102.953 42.4513C102.953 39.0996 104.174 36.4421 106.616 34.4789C109.058 32.5158 112.505 31.199 116.958 30.5287L128.378 28.8049V34.5508L118.466 36.0591C116.312 36.3942 114.684 36.9928 113.582 37.8546C112.529 38.7165 112.002 39.9136 112.002 41.4458C112.002 42.8344 112.505 43.9117 113.511 44.6778C114.516 45.396 115.905 45.7552 117.676 45.7552C120.262 45.7552 122.417 45.1087 124.14 43.8159C125.864 42.5231 126.726 40.943 126.726 39.0756L127.732 44.606C126.774 47.2395 125.194 49.2505 122.991 50.6391C120.837 51.9798 118.179 52.6502 115.019 52.6502Z" fill="#151515"/>
<path d="M80.3228 51.9319V15.3022H89.157V24.1364H89.3725V51.9319H80.3228ZM89.3725 32.827L88.4388 24.1364C89.3006 21.0241 90.761 18.654 92.82 17.026C94.8789 15.398 97.3448 14.584 100.218 14.584C101.223 14.584 101.941 14.6797 102.372 14.8713V23.4182C101.197 23.2027 100.576 23.2027 99.7868 23.2027C96.2914 23.2027 93.6818 23.9689 91.9581 25.5011C90.2343 27.0333 89.3725 29.4753 89.3725 32.827Z" fill="#151515"/>
<path d="M66.7057 51.9319C66.4663 50.9743 66.2747 49.9209 66.1311 48.7717C66.0353 47.6226 65.9875 46.234 65.9875 44.606H65.7002V27.2248C65.7002 25.3095 65.1495 23.8731 64.0482 22.9155C62.9948 21.9099 61.3668 21.4072 59.1643 21.4072C57.0096 21.4072 55.2858 21.8142 53.993 22.6282C52.7481 23.3943 51.982 24.5195 51.6947 26.0038H43.0041C43.3872 22.6042 45.0151 19.851 47.8881 17.7442C50.761 15.6374 54.6155 14.584 59.4516 14.584C64.4792 14.584 68.2858 15.7332 70.8714 18.0315C73.457 20.2819 74.7499 23.6097 74.7499 28.0149V44.606C74.7499 45.7552 74.8217 46.9283 74.9653 48.1253C75.1569 49.3224 75.4202 50.5912 75.7554 51.9319H66.7057ZM53.993 52.6502C50.3061 52.6502 47.3614 51.7404 45.1588 49.9209C43.0041 48.0535 41.9268 45.5636 41.9268 42.4513C41.9268 39.0996 43.1477 36.4421 45.5897 34.4789C48.0317 32.5158 51.4792 31.199 55.9322 30.5287L67.3521 28.8049V34.5508L57.4405 36.0591C55.2858 36.3942 53.6578 36.9928 52.5566 37.8546C51.5032 38.7165 50.9765 39.9136 50.9765 41.4458C50.9765 42.8344 51.4792 43.9117 52.4847 44.6778C53.4903 45.396 54.8788 45.7552 56.6505 45.7552C59.2361 45.7552 61.3908 45.1087 63.1145 43.8159C64.8383 42.5231 65.7002 40.943 65.7002 39.0756L66.7057 44.606C65.748 47.2395 64.1679 49.2505 61.9654 50.6391C59.8107 51.9798 57.1532 52.6502 53.993 52.6502Z" fill="#151515"/>
<path d="M0 51.9333V0.220703H23.1988C26.9815 0.220703 30.2135 0.86711 32.8949 2.15992C35.6242 3.45274 37.7071 5.27225 39.1435 7.61847C40.6279 9.96469 41.37 12.7418 41.37 15.9499C41.37 19.1101 40.6279 21.8873 39.1435 24.2814C37.6592 26.6755 35.5763 28.5429 32.8949 29.8836C30.2135 31.1764 26.9815 31.8228 23.1988 31.8228H7.25412V24.4969H22.7679C25.7366 24.4969 28.011 23.7308 29.5911 22.1985C31.2191 20.6663 32.0331 18.5834 32.0331 15.9499C32.0331 13.3643 31.2191 11.3293 29.5911 9.84498C28.011 8.36064 25.7366 7.61847 22.7679 7.61847H9.33699V51.9333H0Z" fill="#151515"/>
</svg>
